HIERARCHY
ROOT Hips
{
	OFFSET 0.000000 0.000000 0.000000 
	CHANNELS 6 Xposition Yposition Zposition Zrotation Yrotation Xrotation
	JOINT LeftUpLeg
	{
		OFFSET 1.363060 -1.794630 0.839290 
		CHANNELS 3 Zrotation Yrotation Xrotation
		JOINT LeftLeg
		{
			OFFSET 2.448110 -6.726130 0.000000 
			CHANNELS 3 Zrotation Yrotation Xrotation
			JOINT LeftFoot
			{
				OFFSET 2.562200 -7.039590 0.000000 
				CHANNELS 3 Zrotation Yrotation Xrotation
				JOINT LeftToeBase
				{
					OFFSET 0.157640 -0.433110 2.322550 
					CHANNELS 3 Zrotation Yrotation Xrotation
					End Site
					{
						OFFSET 0.000000 0.000000 0.000000 
					}
				}
			}
		}
	}
	JOINT RightUpLeg
	{
		OFFSET -1.305520 -1.794630 0.839290 
		CHANNELS 3 Zrotation Yrotation Xrotation
		JOINT RightLeg
		{
			OFFSET -2.542530 -6.985550 0.000000 
			CHANNELS 3 Zrotation Yrotation Xrotation
			JOINT RightFoot
			{
				OFFSET -2.568260 -7.056230 0.000000 
				CHANNELS 3 Zrotation Yrotation Xrotation
				JOINT RightToeBase
				{
					OFFSET -0.164730 -0.452590 2.363150 
					CHANNELS 3 Zrotation Yrotation Xrotation
					End Site
					{
						OFFSET 0.000000 0.000000 0.000000 
					}
				}
			}
		}
	}
	JOINT Spine
	{
		OFFSET 0.028270 2.035590 -0.193380 
		CHANNELS 3 Zrotation Yrotation Xrotation
		JOINT Spine1
		{
			OFFSET 0.056720 2.048850 -0.042750 
			CHANNELS 3 Zrotation Yrotation Xrotation
			JOINT Neck1
			{
				OFFSET -0.054170 1.746240 0.172020 
				CHANNELS 3 Zrotation Yrotation Xrotation
				JOINT Head
				{
					OFFSET 0.104070 1.761360 -0.123970 
					CHANNELS 3 Zrotation Yrotation Xrotation
					End Site
					{
						OFFSET 0.000000 0.000000 0.000000 
					}
				}
			}
			JOINT LeftArm
			{
				OFFSET 3.362410 1.200890 -0.311210 
				CHANNELS 3 Zrotation Yrotation Xrotation
				JOINT LeftForeArm
				{
					OFFSET 4.983000 -0.000000 -0.000000 
					CHANNELS 3 Zrotation Yrotation Xrotation
					JOINT LeftHand
					{
						OFFSET 3.483560 -0.000000 -0.000000 
						CHANNELS 3 Zrotation Yrotation Xrotation
						JOINT LeftHandIndex1
						{
							OFFSET 0.715260 -0.000000 -0.000000 
							CHANNELS 3 Zrotation Yrotation Xrotation
							End Site
							{
								OFFSET 0.000000 0.000000 0.000000 
							}
						}
					}
				}
			}
			JOINT RightArm
			{
				OFFSET -3.136600 1.374050 -0.404650 
				CHANNELS 3 Zrotation Yrotation Xrotation
				JOINT RightForeArm
				{
					OFFSET -5.241900 -0.000000 -0.000000 
					CHANNELS 3 Zrotation Yrotation Xrotation
					JOINT RightHand
					{
						OFFSET -3.444170 -0.000000 -0.000000 
						CHANNELS 3 Zrotation Yrotation Xrotation
						JOINT RightHandIndex1
						{
							OFFSET -0.622530 -0.000000 -0.000000 
							CHANNELS 3 Zrotation Yrotation Xrotation
							End Site
							{
								OFFSET 0.000000 0.000000 0.000000 
							}
						}
					}
				}
			}
		}
	}
}
MOTION
Frames: 14
Frame Time: 0.041667
9.192236 17.744030 -14.283831 -3.132445 -4.216416 1.911473 -7.533887 -2.663137 -4.433611 -0.307414 6.468689 17.511790 -0.758253 5.431145 -4.205548 0.563800 -4.809300 -13.365300 18.000319 -0.366307 0.752493 -0.047574 -3.874783 9.848324 0.620228 -5.929905 -3.203399 -0.047500 1.406600 -3.868400 0.507067 1.698824 -2.964901 1.680898 1.121844 0.972256 8.293599 -4.452308 10.571240 4.855800 -2.068900 8.937800 -82.015151 0.634575 15.481772 10.561224 -22.316503 -1.951184 0.951121 -1.201777 15.895864 -7.125000 0.000000 0.000000 86.200326 -1.149539 19.358148 -18.560516 29.337282 -4.723506 -0.051162 -0.296155 -8.848003 7.125000 0.000000 0.000000 
9.175258 17.748250 -14.283731 -3.000444 -4.068524 1.982935 -7.619399 -2.892965 -4.376392 -0.334775 6.409891 17.337661 -0.778297 5.515502 -4.162838 0.498600 -4.527000 -12.564400 17.897275 -0.405124 0.421468 -0.070249 -4.014242 10.229911 0.607253 -5.848604 -3.317845 -0.034400 1.196900 -3.290700 0.502891 1.731015 -2.965882 1.730428 1.140777 1.002780 8.070060 -4.497056 10.336834 4.732200 -2.113200 8.697700 -82.351651 0.608411 15.427740 10.548062 -22.335239 -2.012032 0.900808 -1.206413 16.676779 -7.125000 0.000000 0.000000 86.060444 -1.441396 19.792530 -19.014184 29.878877 -4.930740 -0.046435 -0.301864 -9.400929 7.125000 0.000000 0.000000 
9.161093 17.747647 -14.271876 -2.980558 -3.978611 1.876152 -7.662108 -3.083159 -4.312298 -0.306031 6.510218 17.618037 -0.834030 5.756445 -4.259740 0.525600 -4.645900 -12.901400 17.900743 -0.416715 0.785232 -0.048588 -3.886957 9.879328 0.639096 -6.053272 -3.276849 -0.026200 1.045200 -2.873200 0.500996 1.753027 -2.976883 1.639783 1.159921 0.970347 7.738110 -4.434535 10.332790 4.551300 -2.108900 8.609300 -82.720729 0.853087 15.217648 10.607593 -22.452391 -2.085120 0.852823 -1.216119 17.340809 -7.125000 0.000000 0.000000 85.958714 -1.835209 20.275534 -19.315594 30.238823 -5.071297 -0.050492 -0.308239 -9.706763 7.125000 0.000000 0.000000 
9.139996 17.743930 -14.267757 -3.200137 -3.841519 1.771094 -7.391153 -3.132318 -4.416116 -0.258263 6.631926 17.970014 -0.859107 5.853808 -4.217376 0.698300 -5.341600 -14.885600 18.269161 -0.504767 1.226752 -0.019796 -3.710217 9.395440 0.675267 -6.284117 -3.204362 -0.026300 1.047700 -2.880000 0.523672 1.662990 -2.973282 1.520473 1.116018 1.019754 7.662693 -4.357735 10.638052 4.482500 -2.060700 8.875400 -82.823724 0.860029 15.547580 10.897231 -22.906346 -2.218256 0.846056 -1.218251 17.595517 -7.125000 0.000000 0.000000 85.900333 -1.956793 20.937271 -19.787677 30.801245 -5.291040 -0.054558 -0.310904 -10.327688 7.125000 0.000000 0.000000 
9.117895 17.741720 -14.278005 -3.659470 -3.563172 1.783358 -6.788290 -3.213267 -4.752673 -0.190106 6.786294 18.429182 -0.812851 5.640496 -4.181512 0.860600 -5.915800 -16.540400 18.931738 -0.717554 1.589983 0.021597 -3.431202 8.633605 0.716451 -6.547634 -2.945392 -0.016600 0.831800 -2.286200 0.596892 1.519355 -2.988908 1.534537 1.046154 0.981531 7.732050 -4.370386 11.028279 4.528300 -2.060700 9.218800 -82.989620 0.879356 16.388908 11.341218 -23.585593 -2.411729 0.847516 -1.215664 17.113859 -7.125000 0.000000 0.000000 85.601603 -2.143030 21.813539 -20.500062 31.619966 -5.628016 -0.059236 -0.312684 -11.034941 7.125000 0.000000 0.000000 
9.089062 17.750460 -14.309248 -4.688100 -3.394832 2.053616 -5.486020 -3.484043 -5.290797 -0.121767 6.899511 18.787826 -0.755543 5.370073 -4.066688 0.649800 -5.156500 -14.355500 20.331947 -0.629383 1.509474 0.051678 -3.234935 8.093375 0.765536 -6.869144 -2.645377 -0.009500 0.630500 -1.732500 0.723977 1.538149 -3.032882 1.522891 1.068184 0.798140 7.659724 -4.489514 11.104069 4.499300 -2.132900 9.273200 -83.051348 1.032685 17.854737 11.754965 -24.221545 -2.607763 0.830918 -1.214271 15.684695 -7.125000 0.000000 0.000000 85.257833 -2.297246 22.335591 -21.175997 32.377070 -5.955940 -0.066587 -0.311988 -10.946545 7.125000 0.000000 0.000000 
9.067162 17.757894 -14.328235 -5.044659 -3.263608 2.165129 -4.962445 -3.792428 -5.584893 -0.074316 7.006747 19.108941 -0.718880 5.207745 -4.110554 0.436300 -4.238500 -11.748600 20.899534 -0.550318 1.505491 0.068791 -3.122994 7.782642 0.821989 -7.235424 -2.492811 -0.021500 0.947700 -2.604800 0.769016 1.528608 -3.041141 1.518513 1.070077 0.725058 7.545303 -4.546925 10.930380 4.414000 -2.166700 9.111400 -82.999736 1.218909 18.712880 12.302508 -25.065388 -2.871647 0.837041 -1.209193 15.215842 -7.125000 0.000000 0.000000 85.132742 -2.389208 22.639728 -21.872925 33.148667 -6.304734 -0.067136 -0.313105 -10.765127 7.125000 0.000000 0.000000 
9.060431 17.750560 -14.324619 -4.628778 -3.119808 2.016668 -5.419261 -3.751217 -5.730110 -0.011357 7.202975 19.670612 -0.696521 5.130929 -4.437538 0.538600 -4.702300 -13.061300 20.422739 -0.673207 1.914484 0.090462 -2.943530 7.292776 0.876100 -7.579977 -2.371586 -0.037400 1.248200 -3.431900 0.707809 1.489595 -3.038998 1.413976 1.055585 0.670341 7.450433 -4.486100 10.710782 4.352600 -2.142400 8.881600 -82.929337 1.551528 19.124521 13.036947 -26.159327 -3.227436 0.862042 -1.201300 15.300259 -7.125000 0.000000 0.000000 85.138241 -2.675491 22.911900 -22.636398 33.982560 -6.697814 -0.064982 -0.317976 -10.805995 7.125000 0.000000 0.000000 
9.043955 17.743628 -14.337578 -4.982994 -3.143648 2.130710 -4.988585 -3.533797 -6.033412 0.016356 7.232170 19.776242 -0.704956 5.156207 -4.383979 0.667100 -5.223300 -14.546400 20.922631 -0.321231 1.633038 0.078477 -3.071298 7.642146 0.906558 -7.764766 -2.515968 -0.035500 1.216100 -3.343600 0.698580 1.606553 -3.115225 1.124757 1.128074 0.346244 7.442266 -4.430966 10.658799 4.341800 -2.115200 8.808400 -82.666353 1.881116 20.251480 13.665260 -27.048503 -3.543962 0.865014 -1.196403 14.518147 -7.125000 0.000000 0.000000 85.173082 -3.144689 23.197171 -23.552158 34.938379 -7.175474 -0.067085 -0.325946 -10.788028 7.125000 0.000000 0.000000 
9.008995 17.739309 -14.395042 -6.741197 -3.405661 2.755677 -2.889538 -3.310850 -6.938493 0.073160 7.198584 19.741416 -0.706033 5.112024 -3.807338 0.641500 -5.124200 -14.263100 23.275300 0.625840 0.657272 0.057209 -3.297523 8.260579 0.945881 -8.009716 -2.586755 -0.027200 1.063800 -2.924200 0.871980 1.870293 -3.248022 0.961134 1.273047 -0.108118 7.584221 -4.445062 10.843833 4.434900 -2.117900 9.006100 -82.613806 1.785379 21.200892 14.220345 -27.772666 -3.823327 0.862523 -1.188495 14.443175 -7.125000 0.000000 0.000000 84.921046 -3.469753 23.693409 -24.671367 36.046360 -7.773979 -0.070376 -0.337964 -10.946592 7.125000 0.000000 0.000000 
9.010602 17.743026 -14.354958 -5.195036 -2.810721 2.249496 -4.547537 -3.463040 -6.306758 0.023182 7.201180 19.709436 -0.567237 4.562308 -4.142113 0.578200 -4.869400 -13.536400 21.380315 -0.003959 0.972356 0.030383 -3.476753 8.756938 0.935962 -7.922138 -3.267538 -0.026700 1.054700 -2.899400 0.756288 1.601744 -3.138195 1.379646 1.119204 0.388831 7.920736 -4.416698 11.074356 4.644800 -2.085000 9.180200 -82.749539 1.441317 21.629534 14.813060 -28.625213 -4.140153 0.883348 -1.176697 15.362360 -7.125000 0.000000 0.000000 84.481083 -3.544502 24.262655 -25.773323 37.172095 -8.403649 -0.065469 -0.339091 -11.149256 7.125000 0.000000 0.000000 
9.003268 17.740615 -14.351944 -4.718408 -2.590728 2.113991 -5.026506 -3.574234 -6.083259 -0.008838 7.157322 19.565379 -0.558488 4.524799 -4.091965 0.602400 -4.968200 -13.818000 20.851388 -0.027604 0.921667 0.008129 -3.638556 9.199483 0.944254 -7.968485 -3.665473 -0.030000 1.117500 -3.072100 0.735734 1.537323 -3.089534 1.592114 1.078376 0.589634 7.823404 -4.348786 11.002154 4.554200 -2.046000 9.111200 -82.593856 1.234000 22.566259 15.560412 -29.648164 -4.541856 0.898428 -1.163490 15.435946 -7.125000 0.000000 0.000000 84.032663 -3.534121 24.762687 -26.914077 38.270435 -9.063599 -0.059119 -0.331394 -11.362921 7.125000 0.000000 0.000000 
8.998446 17.738003 -14.344611 -4.190540 -2.214468 1.953444 -5.569845 -3.670424 -5.714191 -0.081033 7.000687 19.098453 -0.565099 4.538446 -3.779629 0.755500 -5.551200 -15.487600 20.228538 -0.166712 0.774121 -0.027386 -3.868985 9.828996 0.927461 -7.868228 -4.045399 -0.033900 1.187700 -3.265500 0.714709 1.445782 -3.053568 1.682705 1.036861 0.646774 6.446925 -4.450146 10.439792 3.630800 -2.147900 8.577800 -82.196806 1.177574 24.026632 16.426177 -30.812157 -5.029111 0.899334 -1.151838 14.831646 -7.125000 0.000000 0.000000 83.569764 -3.699897 25.176409 -28.239259 39.488767 -9.858340 -0.059180 -0.344500 -11.566819 7.125000 0.000000 0.000000 
8.990108 17.740514 -14.338382 -3.805519 -1.903701 1.773340 -5.930119 -3.736995 -5.476089 -0.108626 6.943199 18.925766 -0.486398 4.198193 -3.654710 0.696400 -5.334500 -14.865100 19.794790 -0.326296 0.837035 -0.044076 -3.967772 10.105217 0.924234 -7.850078 -4.308997 -0.032300 1.159600 -3.187900 0.683252 1.330317 -3.024139 1.875264 0.958437 0.832587 7.410537 -4.717323 11.244473 4.283900 -2.250100 9.254100 -81.850224 0.980184 25.284387 17.309427 -31.928617 -5.544196 0.891027 -1.144711 14.593079 -7.125000 0.000000 0.000000 83.219279 -3.681050 25.493739 -29.675996 40.764550 -10.746318 -0.054729 -0.356356 -11.662472 7.125000 0.000000 0.000000 
